<svg xmlns="http://www.w3.org/2000/svg" viewBox="0 0 100 100" width="100" height="100">
  <circle cx="50" cy="50" r="48" fill="#3B82F6"/>
  <ellipse cx="50" cy="34" rx="24" ry="20" fill="#1a1a2e"/>
  <ellipse cx="50" cy="48" rx="22" ry="24" fill="#C68642"/>
  <ellipse cx="41" cy="46" rx="3.5" ry="4" fill="#1a1a2e"/>
  <ellipse cx="59" cy="46" rx="3.5" ry="4" fill="#1a1a2e"/>
  <circle cx="42" cy="45" r="1.2" fill="#fff"/>
  <circle cx="60" cy="45" r="1.2" fill="#fff"/>
  <path d="M36 39 Q41 36 46 39" stroke="#1a1a2e" stroke-width="2" fill="none" stroke-linecap="round"/>
  <path d="M54 39 Q59 36 64 39" stroke="#1a1a2e" stroke-width="2" fill="none" stroke-linecap="round"/>
  <path d="M48 52 Q50 55 52 52" stroke="#8B5E3C" stroke-width="1.2" fill="none" stroke-linecap="round"/>
  <path d="M43 58 Q50 63 57 58" stroke="#1a1a2e" stroke-width="1.8" fill="none" stroke-linecap="round"/>
  <path d="M30 78 Q50 70 70 78 Q70 85 50 82 Q30 85 30 78" fill="#2563EB"/>
</svg>
